<?xml version="1.0" standalone="no"?>
<!DOCTYPE svg PUBLIC "-//W3C//DTD SVG 20010904//EN"
 "http://www.w3.org/TR/2001/REC-SVG-20010904/DTD/svg10.dtd">
<svg version="1.0" xmlns="http://www.w3.org/2000/svg"
 width="2048.000000pt" height="2048.000000pt" viewBox="0 0 2048.000000 2048.000000"
 preserveAspectRatio="xMidYMid meet">

<g transform="translate(0.000000,2048.000000) scale(0.100000,-0.100000)"
fill="#000000" stroke="none">
<path d="M9887 16682 c-13 -14 -16 -36 -15 -93 2 -76 -46 -319 -64 -319 -4 0
-8 4 -8 9 0 4 -15 27 -33 50 -100 127 -344 232 -355 153 -2 -13 3 -31 11 -40
36 -41 101 -212 74 -195 -7 4 -40 26 -73 50 -88 61 -295 159 -380 179 -119 28
-131 7 -58 -102 49 -73 128 -223 150 -287 13 -37 13 -38 -9 -31 -39 11 -262
120 -356 173 -50 28 -100 51 -110 51 -23 0 -45 -34 -37 -57 3 -8 13 -121 21
-251 8 -130 20 -254 26 -275 6 -22 9 -40 7 -41 -2 -1 -39 -19 -83 -40 -75 -36
-96 -55 -317 -276 -258 -260 -336 -320 -523 -410 -113 -54 -130 -69 -121 -104
8 -31 53 -51 146 -65 41 -7 76 -14 79 -17 6 -6 -7 -71 -69 -339 -122 -529
-167 -638 -343 -821 -107 -111 -118 -139 -65 -158 23 -8 43 -1 140 49 62 32
142 78 177 101 36 24 67 42 69 40 2 -2 -6 -46 -17 -98 -11 -51 -38 -199 -61
-328 -73 -425 -134 -630 -290 -975 -49 -107 -173 -311 -245 -400 -36 -44 -65
-89 -65 -100 0 -28 19 -45 49 -45 34 0 123 42 173 81 21 17 41 29 45 26 33
-33 -432 -768 -790 -1250 -156 -211 -189 -267 -208 -355 -14 -67 0 -112 48
-151 l35 -29 -39 -43 c-49 -55 -132 -108 -217 -139 -84 -31 -142 -80 -178
-152 -30 -59 -35 -97 -16 -116 9 -9 9 -21 0 -50 -18 -59 -15 -89 10 -106 27
-19 57 -12 118 25 24 15 46 26 49 24 2 -3 -13 -48 -32 -102 -75 -202 -157
-516 -157 -600 0 -21 5 -44 12 -51 16 -16 70 -16 86 0 9 9 12 4 12 -23 0 -45
8 -56 55 -71 l40 -13 1 -78 c0 -55 5 -81 14 -87 10 -6 -8 -32 -72 -102 -204
-224 -280 -355 -280 -487 0 -73 28 -131 79 -162 33 -21 52 -24 153 -26 l115
-2 13 -60 c17 -76 75 -144 159 -186 47 -24 71 -29 130 -30 l72 0 11 -85 c31
-224 133 -658 246 -1045 64 -220 84 -260 129 -260 25 0 33 7 49 38 11 24 22
35 28 29 5 -5 35 -71 67 -148 60 -143 125 -277 159 -327 19 -28 19 -29 -9
-135 -15 -59 -52 -190 -82 -292 -62 -210 -130 -495 -148 -619 -13 -93 -7 -235
12 -296 16 -49 116 -153 174 -180 56 -26 145 -31 199 -11 23 9 60 32 81 52 35
32 39 33 48 17 5 -10 35 -43 66 -74 63 -62 119 -84 207 -82 80 2 160 52 179
112 4 15 17 7 71 -46 105 -103 234 -150 307 -112 39 20 76 61 88 96 l11 34 33
-38 c39 -46 112 -88 179 -103 120 -27 211 52 253 219 l8 33 49 -77 c67 -106
156 -199 221 -230 181 -89 365 10 420 225 58 227 -23 585 -233 1027 -165 347
-339 670 -424 790 l-30 41 36 74 c24 50 46 79 68 93 49 30 60 59 53 138 -7 85
6 115 84 207 106 123 106 121 107 370 0 187 3 225 22 293 61 223 200 355 422
403 66 14 95 15 242 4 102 -8 221 -10 305 -6 107 5 149 4 188 -8 28 -8 75 -18
105 -21 177 -23 349 -150 424 -316 16 -33 30 -91 38 -150 10 -83 9 -109 -7
-204 -10 -61 -20 -134 -22 -162 -5 -49 -3 -53 21 -65 23 -10 31 -8 57 11 l30
22 -3 -191 -3 -192 29 -25 c25 -21 37 -24 73 -20 35 4 43 1 48 -14 4 -11 36
-47 71 -81 36 -35 72 -74 79 -88 17 -33 24 -251 9 -271 -7 -8 -60 -105 -118
-217 -331 -630 -457 -978 -458 -1266 0 -178 35 -280 125 -363 85 -78 202 -92
312 -38 65 31 154 124 221 230 l49 77 8 -33 c30 -121 89 -198 164 -218 78 -21
203 26 268 102 l33 38 11 -34 c12 -35 49 -76 88 -96 73 -38 202 9 307 112 54
53 67 61 71 46 19 -60 99 -110 179 -112 88 -2 144 20 207 82 31 31 61 64 66
74 9 16 13 15 48 -17 21 -20 58 -43 81 -52 54 -20 143 -15 199 11 58 27 158
131 174 180 19 61 25 203 12 296 -19 131 -87 412 -161 665 -37 126 -73 256
-80 288 -8 39 -20 67 -37 82 l-26 24 46 19 c52 23 65 39 105 137 16 39 48 100
71 136 23 36 56 113 76 174 25 74 45 119 65 139 49 50 60 92 60 220 0 63 3
115 6 115 3 0 25 -14 49 -31 55 -40 81 -30 90 34 22 165 36 426 33 622 -2 170
0 227 11 253 7 17 15 32 17 32 2 0 20 -11 40 -25 154 -105 406 -5 446 176 l13
60 115 2 c101 2 120 5 153 26 114 71 102 268 -27 440 l-25 34 19 25 c32 41 25
74 -36 163 -89 131 -89 136 0 158 92 23 134 73 123 151 -7 52 -50 113 -180
260 -88 98 -106 124 -97 135 19 22 14 99 -9 144 -12 22 -46 78 -76 124 -65
100 -125 222 -125 255 0 16 10 28 32 40 53 28 88 67 88 99 0 16 -9 57 -21 92
-12 34 -19 64 -17 66 2 2 44 9 93 15 153 19 200 52 211 146 5 43 2 58 -30 117
-53 102 -116 168 -401 422 -409 363 -597 547 -824 805 -120 136 -275 349 -286
393 l-7 26 69 -33 c129 -64 202 -72 253 -29 31 26 32 29 27 87 -6 72 -57 235
-137 436 -32 80 -106 271 -165 425 -100 261 -167 409 -230 513 -14 23 -23 42
-18 42 4 -1 35 -7 68 -15 33 -8 88 -15 122 -15 55 0 64 3 79 25 21 32 16 43
-61 150 -84 118 -160 265 -230 450 -103 273 -187 479 -226 557 -22 43 -39 79
-39 82 0 2 58 5 129 8 137 4 161 12 161 52 0 12 -14 35 -31 52 -46 43 -144
194 -194 298 -24 50 -76 172 -116 271 -92 231 -143 333 -217 431 -98 129 -245
256 -356 305 l-46 20 6 62 c3 34 1 140 -5 236 -12 184 -20 211 -63 211 -11 0
-43 -24 -71 -54 -93 -96 -186 -158 -282 -185 -40 -12 -336 -33 -344 -25 -2 2
3 12 12 22 29 32 79 151 90 217 19 112 -16 154 -85 101 -41 -31 -102 -45 -193
-46 -88 0 -190 -22 -262 -55 -31 -14 -57 -25 -59 -25 -2 0 -6 17 -9 38 -15
101 -38 199 -51 220 -10 15 -23 22 -37 20 -18 -2 -27 -19 -50 -93 -16 -49 -39
-119 -51 -154 l-23 -64 -46 71 c-89 138 -290 322 -352 322 -12 0 -29 -8 -38
-18z"/>
</g>
</svg>
